<svg xmlns="http://www.w3.org/2000/svg" viewBox="0 0 64 64" fill="none">
  <rect width="64" height="64" rx="14" fill="#0B0D10"/>
  <path
    d="M16 12h14l-8 10h10L18 42h-8l8-12H10L16 12z"
    fill="#C9A227"
  />
  <path
    d="M34 40l10-14h8L40 42H20l4-6h10z"
    fill="#2B4C7E"
  />
  <path d="M34 20v4M34 38v4" stroke="#C9A227" stroke-width="1.6" stroke-linecap="round"/>
  <rect x="31.2" y="24" width="5.6" height="14" rx="0.8" fill="#C9A227"/>
  <path d="M26 24v3M26 35v3" stroke="#2B4C7E" stroke-width="1.4" stroke-linecap="round"/>
  <rect x="23.8" y="27" width="4.4" height="8" rx="0.6" fill="#2B4C7E"/>
  <path d="M42 22v3M42 37v3" stroke="#2B4C7E" stroke-width="1.4" stroke-linecap="round"/>
  <rect x="39.8" y="25" width="4.4" height="12" rx="0.6" fill="#2B4C7E"/>
</svg>
